<?xml version="1.0" standalone="no"?>
<!DOCTYPE svg PUBLIC "-//W3C//DTD SVG 20010904//EN"
 "http://www.w3.org/TR/2001/REC-SVG-20010904/DTD/svg10.dtd">
<svg version="1.0" xmlns="http://www.w3.org/2000/svg"
 width="204.000000pt" height="192.000000pt" viewBox="0 0 204.000000 192.000000"
 preserveAspectRatio="xMidYMid meet">
<metadata>
Created by potrace 1.10, written by Peter Selinger 2001-2011
</metadata>
<g transform="translate(0.000000,192.000000) scale(0.100000,-0.100000)"
fill="#000000" stroke="none">
<path d="M732 1465 l-32 -27 0 -273 0 -273 32 -27 c31 -26 34 -27 151 -23 116
3 119 4 143 32 22 25 25 36 22 105 -3 74 -4 76 -28 76 -24 0 -25 -3 -28 -65
-2 -35 -8 -70 -14 -77 -11 -14 -171 -19 -202 -7 -14 5 -16 38 -16 259 0 221 2
254 16 259 29 11 189 7 202 -6 7 -7 12 -39 12 -75 0 -50 4 -64 18 -72 31 -16
42 6 42 85 0 63 -3 77 -24 101 -24 27 -27 28 -143 31 -117 4 -120 3 -151 -23z"/>
<path d="M1162 1318 c-20 -20 -14 -34 33 -77 25 -23 45 -42 45 -44 0 -1 -85 0
-189 1 -201 4 -233 -1 -224 -38 8 -29 34 -33 233 -28 99 2 180 2 180 1 0 -1
-21 -22 -47 -46 -32 -31 -44 -49 -40 -61 15 -38 38 -29 109 40 38 38 74 77 79
87 9 15 -3 32 -67 98 -79 81 -91 88 -112 67z m123 -138 c10 -17 -5 -49 -20
-44 -20 8 -28 36 -13 46 17 10 26 10 33 -2z"/>
</g>
</svg>
